<?xml version="1.0" encoding="iso-8859-1"?>
<!-- Generator: Adobe Illustrator 19.0.0, SVG Export Plug-In . SVG Version: 6.00 Build 0)  -->
<svg version="1.1" id="Capa_1" xmlns="http://www.w3.org/2000/svg" xmlns:xlink="http://www.w3.org/1999/xlink" x="0px" y="0px"
	 viewBox="0 0 512 512" style="enable-background:new 0 0 512 512;" xml:space="preserve">
<path style="fill:#EDF6F9;" d="M479.62,311.691c0,18.49-11.06,34.41-26.93,41.49c-5.65,2.53-11.91,3.93-18.5,3.93H164.68
	l-0.18-101.34L7.62,98.881l-0.09-68.2L7.5,10.131l160.9,160.9c5.29-19.23,22.88-33.36,43.79-33.36c9.78,0,18.82,3.09,26.22,8.35
	c7.61-34.01,37.96-59.43,74.26-59.43c42.02,0,76.1,34.07,76.1,76.1c0,3.58-0.28,7.1-0.75,10.55c0.25,0,0.5-0.02,0.75-0.02
	c40.14,0,72.68,32.55,72.68,72.69c0,9.25-1.74,18.1-4.9,26.24C470.32,279.951,479.62,294.731,479.62,311.691z"/>
<g>
	<path style="fill:#DAE7EA;" d="M452.69,353.181c-5.65,2.53-11.91,3.93-18.5,3.93H164.68l-0.18-101.34L7.62,98.881l-0.09-68.2
		l157.93,157.93h61.691c2.484,0,4.866,0.987,6.623,2.743l86.137,86.137h53.211c2.484,0,4.866,0.987,6.623,2.743L452.69,353.181z"/>
	<path style="fill:#DAE7EA;" d="M479.62,311.691c0,18.86-11.5,35.04-27.88,41.9c5.46-7.5,8.68-16.73,8.68-26.71
		c0-16.96-9.29-31.74-23.07-39.53c3.16-8.14,4.91-16.99,4.91-26.24c0-40.15-32.54-72.7-72.69-72.7c-0.25,0-0.49,0.02-0.75,0.02
		c0.48-3.44,0.75-6.96,0.75-10.54c0-42.03-34.08-76.1-76.1-76.1c-13.42,0-26.03,3.47-36.98,9.58
		c13.91-15.23,33.93-24.78,56.18-24.78c42.02,0,76.1,34.07,76.1,76.1c0,3.58-0.28,7.1-0.75,10.55c0.25,0,0.5-0.02,0.75-0.02
		c40.14,0,72.68,32.55,72.68,72.69c0,9.25-1.74,18.1-4.9,26.24C470.32,279.951,479.62,294.731,479.62,311.691z"/>
</g>
<polygon style="fill:#7A7AAE;" points="7.524,54.717 158.419,205.612 223.991,205.612 312.87,294.49 369.96,294.49 487.57,412.1 
	487.57,501.872 7.524,501.872 "/>
<g>
	<path style="fill:#6969A5;" d="M276.691,285.405l-78.656-79.793h-39.617l91.419,91.414V449.73h16.669
		c5.624,0,10.184-4.559,10.184-10.184V285.405H276.691z"/>
	<path style="fill:#6969A5;" d="M151.685,501.872h-22.049V285.405h14.396c4.227,0,7.653,3.426,7.653,7.653V501.872z"/>
	<path style="fill:#6969A5;" d="M372.893,501.872h-22.049V372.308h14.396c4.227,0,7.653,3.426,7.653,7.653V501.872z"/>
</g>
<g>
	<circle style="fill:#EDF6F9;" cx="487.57" cy="183.62" r="16.93"/>
	<circle style="fill:#EDF6F9;" cx="323.19" cy="206.8" r="16.93"/>
	<circle style="fill:#EDF6F9;" cx="230.62" cy="73.65" r="16.93"/>
</g>
<g>
	<polygon style="fill:#36CC8F;" points="180.272,453.562 149.116,422.406 175.858,422.406 142.588,389.136 163.7,389.136 
		129.637,355.072 95.573,389.136 116.685,389.136 83.415,422.406 110.157,422.406 79.001,453.562 	"/>
	<polygon style="fill:#36CC8F;" points="120.513,253.022 98.559,231.068 117.403,231.068 93.959,207.624 108.836,207.624 
		84.833,183.621 60.83,207.624 75.707,207.624 52.263,231.068 71.107,231.068 49.152,253.022 	"/>
	<polygon style="fill:#36CC8F;" points="460.417,472.262 438.463,450.308 457.307,450.308 433.863,426.864 448.74,426.864 
		424.737,402.861 400.734,426.864 415.611,426.864 392.167,450.308 411.011,450.308 389.056,472.262 	"/>
</g>
<path d="M448.663,362.586c22.167-6.312,38.452-26.731,38.452-50.896c0-16.913-8.131-32.732-21.574-42.629
	c2.268-7.494,3.414-15.255,3.414-23.146c0-41.716-32.014-76.096-72.759-79.856c0.048-1.133,0.072-2.256,0.072-3.364
	c0-6.205-0.684-12.394-2.032-18.396c-0.907-4.04-4.911-6.58-8.962-5.673c-4.041,0.908-6.581,4.92-5.673,8.962
	c1.106,4.923,1.667,10.006,1.667,15.106c0,3.053-0.229,6.256-0.678,9.521c-0.296,2.147,0.352,4.317,1.776,5.951
	c1.424,1.635,3.485,2.572,5.653,2.572c0.236,0,0.468-0.008,0.699-0.018l0.049-0.004c35.944,0,65.187,29.247,65.187,65.197
	c0,8.087-1.48,16.002-4.401,23.526c-1.348,3.473,0.058,7.407,3.299,9.241c11.882,6.723,19.263,19.371,19.263,33.008
	c0,20.421-16.226,37.115-36.462,37.887l-60.39-60.39c-1.407-1.406-3.314-2.196-5.304-2.196h-53.984l-86.681-86.682
	c-1.407-1.406-3.314-2.196-5.304-2.196h-62.466l-77.222-77.224c-2.929-2.927-7.677-2.929-10.607,0c-2.929,2.93-2.929,7.678,0,10.607
	l168.643,168.642V449.73c0,4.143,3.357,7.5,7.5,7.5s7.5-3.357,7.5-7.5V297.031c0-1.989-0.79-3.896-2.196-5.304l-78.616-78.615
	h44.358l84.484,84.485v28.456c0,4.143,3.357,7.5,7.5,7.5s7.5-3.357,7.5-7.5V301.99h46.484l113.216,113.216v79.166h-47.832v-14.61
	h28.18c3.033,0,5.769-1.827,6.929-4.63c1.161-2.803,0.52-6.028-1.625-8.174l-9.151-9.15h0.737c3.033,0,5.769-1.827,6.929-4.63
	c1.161-2.803,0.52-6.028-1.625-8.174l-11.15-11.149c1.87-0.729,3.411-2.194,4.209-4.12c1.161-2.803,0.52-6.028-1.625-8.174
	l-24.003-24.003c-2.93-2.928-7.678-2.928-10.607,0l-24.003,24.003c-2.145,2.146-2.786,5.371-1.625,8.174
	c0.797,1.926,2.338,3.391,4.209,4.119l-11.151,11.15c-2.145,2.146-2.786,5.371-1.625,8.174c1.16,2.803,3.896,4.63,6.929,4.63h0.737
	l-9.151,9.15c-2.145,2.146-2.786,5.371-1.625,8.174c1.16,2.803,3.896,4.63,6.929,4.63h28.181v14.61h-58.893V372.308
	c0-4.143-3.357-7.5-7.5-7.5h-36.933c-4.143,0-7.5,3.357-7.5,7.5s3.357,7.5,7.5,7.5h29.433v114.564H222.333
	c-4.143,0-7.5,3.357-7.5,7.5s3.357,7.5,7.5,7.5h265.236c4.143,0,7.5-3.357,7.5-7.5V412.1c0-1.989-0.79-3.896-2.196-5.304
	L448.663,362.586z M417.939,447.437c-1.16-2.803-3.896-4.63-6.929-4.63h-0.737l10.641-10.64c2.145-2.146,2.786-5.371,1.625-8.174
	c-0.797-1.926-2.338-3.391-4.208-4.119l6.406-6.407l6.406,6.406c-1.87,0.729-3.411,2.194-4.209,4.12
	c-1.161,2.803-0.52,6.028,1.625,8.174l10.641,10.64h-0.737c-3.033,0-5.769,1.827-6.929,4.63c-1.161,2.803-0.52,6.028,1.625,8.174
	l9.151,9.15h-35.147l9.151-9.15C418.459,453.466,419.101,450.24,417.939,447.437z"/>
<path d="M188.333,494.372h-51.196v-33.311h43.136c3.033,0,5.769-1.827,6.929-4.63c1.161-2.803,0.52-6.028-1.625-8.174
	l-18.354-18.353h8.636c3.033,0,5.769-1.827,6.929-4.63c1.161-2.803,0.52-6.028-1.625-8.174l-20.467-20.466h3.005
	c3.033,0,5.769-1.827,6.929-4.63c1.161-2.803,0.52-6.028-1.625-8.174l-31.867-31.867v-66.561c0-4.143-3.357-7.5-7.5-7.5H92.333
	v-17.383h28.181c3.033,0,5.769-1.827,6.929-4.63c1.161-2.803,0.52-6.028-1.626-8.174l-9.15-9.15h0.737
	c3.033,0,5.769-1.827,6.929-4.63c1.161-2.803,0.52-6.028-1.626-8.174l-11.15-11.15c1.87-0.728,3.412-2.193,4.209-4.119
	c1.161-2.803,0.52-6.028-1.625-8.174l-24.003-24.003c-2.93-2.928-7.678-2.928-10.607,0L55.526,202.32
	c-2.145,2.146-2.786,5.371-1.625,8.174c0.797,1.926,2.339,3.392,4.209,4.119l-11.15,11.15c-2.146,2.146-2.787,5.371-1.626,8.174
	c1.16,2.803,3.896,4.63,6.929,4.63H53l-9.151,9.15c-2.145,2.146-2.786,5.371-1.625,8.174c1.16,2.803,3.896,4.63,6.929,4.63h28.181
	v17.383H49.152c-4.143,0-7.5,3.357-7.5,7.5s3.357,7.5,7.5,7.5h72.984v59.061L90.27,383.832c-2.145,2.146-2.786,5.371-1.625,8.174
	c1.16,2.803,3.896,4.63,6.929,4.63h3.005l-20.467,20.466c-2.145,2.146-2.786,5.371-1.625,8.174c1.16,2.803,3.896,4.63,6.929,4.63
	h8.636l-18.354,18.353c-2.145,2.146-2.786,5.371-1.625,8.174c1.16,2.803,3.896,4.63,6.929,4.63h43.136v33.311H15.024V72.823
	l38.77,38.771c2.929,2.927,7.677,2.929,10.607,0c2.929-2.93,2.929-7.678,0-10.607L15,51.585v-23.35l145.175,145.176
	c-0.584,3.143-0.904,6.377-0.904,9.687c0,4.143,3.357,7.5,7.5,7.5s7.5-3.357,7.5-7.5c0-20.911,17.013-37.923,37.924-37.923
	c7.899,0,15.465,2.406,21.879,6.959c2.048,1.453,4.686,1.787,7.03,0.885c2.344-0.9,4.082-2.914,4.63-5.364
	c6.941-31.035,35.092-53.561,66.936-53.561c21.359,0,41.128,9.693,54.239,26.595c2.538,3.274,7.25,3.867,10.522,1.329
	c3.273-2.538,3.868-7.25,1.329-10.522c-15.973-20.592-40.062-32.401-66.091-32.401c-19.111,0-37.797,6.618-52.612,18.636
	c-11.993,9.728-21.077,22.649-26.198,37.07c-6.76-3.044-14.104-4.625-21.664-4.625c-11.892,0-22.878,3.944-31.724,10.59
	L44.877,5.172c-2.93-2.928-7.678-2.928-10.607,0c-2.929,2.93-2.929,7.678,0,10.607l135.593,135.593
	c-1.52,2.023-2.898,4.159-4.12,6.391L12.804,4.825C10.657,2.681,7.433,2.037,4.63,3.2C1.827,4.36,0,7.096,0,10.129l0.024,491.743
	c0,4.143,3.357,7.5,7.5,7.5h180.809c4.143,0,7.5-3.357,7.5-7.5S192.476,494.372,188.333,494.372z M78.035,228.197
	c-1.16-2.803-3.896-4.63-6.929-4.63H70.37l10.64-10.64c2.146-2.146,2.787-5.371,1.626-8.174c-0.798-1.926-2.339-3.392-4.209-4.12
	l6.406-6.406l6.406,6.406c-1.87,0.729-3.411,2.194-4.209,4.12c-1.161,2.803-0.52,6.028,1.626,8.174l10.64,10.64h-0.737
	c-3.033,0-5.769,1.827-6.929,4.63c-1.161,2.803-0.52,6.028,1.626,8.174l9.15,9.15H67.259l9.151-9.15
	C78.555,234.226,79.196,231,78.035,228.197z M115.461,427.709c2.145-2.146,2.786-5.371,1.625-8.174
	c-1.16-2.803-3.896-4.63-6.929-4.63h-8.635l20.467-20.466c2.145-2.146,2.786-5.371,1.625-8.174c-1.16-2.803-3.896-4.63-6.929-4.63
	h-3.006l15.957-15.957l15.957,15.957h-3.006c-3.033,0-5.769,1.827-6.929,4.63c-1.161,2.803-0.52,6.028,1.625,8.174l20.467,20.466
	h-8.635c-3.033,0-5.769,1.827-6.929,4.63c-1.161,2.803-0.52,6.028,1.625,8.174l18.354,18.353H97.107L115.461,427.709z"/>
<path d="M187.621,122.038c1.465,1.464,3.385,2.196,5.304,2.196s3.839-0.732,5.304-2.196c2.929-2.93,2.929-7.678,0-10.607
	l-26.154-26.154c-2.93-2.928-7.678-2.928-10.607,0c-2.929,2.93-2.929,7.678,0,10.607L187.621,122.038z"/>
<path d="M452.262,148.619h1.756c4.143,0,7.5-3.357,7.5-7.5s-3.357-7.5-7.5-7.5h-1.756c-4.143,0-7.5,3.357-7.5,7.5
	S448.119,148.619,452.262,148.619z"/>
<path d="M307.141,155.44c4.143,0,7.5-3.357,7.5-7.5s-3.357-7.5-7.5-7.5h-1.756c-4.143,0-7.5,3.357-7.5,7.5s3.357,7.5,7.5,7.5
	H307.141z"/>
<path d="M371.124,206.796c0-4.143-3.357-7.5-7.5-7.5h-1.756c-4.143,0-7.5,3.357-7.5,7.5s3.357,7.5,7.5,7.5h1.756
	C367.767,214.296,371.124,210.938,371.124,206.796z"/>
<path d="M401.667,249.888c4.143,0,7.5-3.357,7.5-7.5s-3.357-7.5-7.5-7.5h-1.756c-4.143,0-7.5,3.357-7.5,7.5s3.357,7.5,7.5,7.5
	H401.667z"/>
<path d="M372.015,271.888h1.756c4.143,0,7.5-3.357,7.5-7.5s-3.357-7.5-7.5-7.5h-1.756c-4.143,0-7.5,3.357-7.5,7.5
	S367.872,271.888,372.015,271.888z"/>
<path d="M248.961,172.221c-4.143,0-7.5,3.357-7.5,7.5s3.357,7.5,7.5,7.5h1.756c4.143,0,7.5-3.357,7.5-7.5s-3.357-7.5-7.5-7.5
	H248.961z"/>
<path d="M478.738,353.784c-4.143,0-7.5,3.357-7.5,7.5s3.357,7.5,7.5,7.5h1.755c4.143,0,7.5-3.357,7.5-7.5s-3.357-7.5-7.5-7.5
	H478.738z"/>
<path d="M312.156,62.217h1.756c4.143,0,7.5-3.357,7.5-7.5s-3.357-7.5-7.5-7.5h-1.756c-4.143,0-7.5,3.357-7.5,7.5
	S308.014,62.217,312.156,62.217z"/>
<path d="M487.569,159.19c-13.471,0-24.431,10.96-24.431,24.431s10.96,24.43,24.431,24.43S512,197.092,512,183.621
	S501.04,159.19,487.569,159.19z M487.569,193.051c-5.2,0-9.431-4.23-9.431-9.43s4.23-9.431,9.431-9.431s9.431,4.23,9.431,9.431
	C497,188.82,492.77,193.051,487.569,193.051z"/>
<path d="M323.193,231.227c13.471,0,24.43-10.96,24.43-24.431s-10.959-24.431-24.43-24.431s-24.431,10.96-24.431,24.431
	S309.723,231.227,323.193,231.227z M323.193,197.365c5.199,0,9.43,4.23,9.43,9.431s-4.23,9.431-9.43,9.431
	c-5.2,0-9.431-4.23-9.431-9.431S317.993,197.365,323.193,197.365z"/>
<path d="M230.616,98.08c13.471,0,24.431-10.96,24.431-24.431s-10.96-24.431-24.431-24.431s-24.431,10.96-24.431,24.431
	S217.146,98.08,230.616,98.08z M230.616,64.219c5.2,0,9.431,4.23,9.431,9.431s-4.23,9.431-9.431,9.431s-9.431-4.23-9.431-9.431
	S225.416,64.219,230.616,64.219z"/>
<path d="M65,368.784c4.143,0,7.5-3.357,7.5-7.5v-41.046c0-4.143-3.357-7.5-7.5-7.5s-7.5,3.357-7.5,7.5v41.046
	C57.5,365.427,60.857,368.784,65,368.784z"/>
<path d="M57.5,393.639c0,4.143,3.357,7.5,7.5,7.5s7.5-3.357,7.5-7.5v-9.918c0-4.143-3.357-7.5-7.5-7.5s-7.5,3.357-7.5,7.5V393.639z"
	/>
<path d="M233.167,343.054v-34c0-4.143-3.357-7.5-7.5-7.5s-7.5,3.357-7.5,7.5v34c0,4.143,3.357,7.5,7.5,7.5
	S233.167,347.196,233.167,343.054z"/>
<g>
</g>
<g>
</g>
<g>
</g>
<g>
</g>
<g>
</g>
<g>
</g>
<g>
</g>
<g>
</g>
<g>
</g>
<g>
</g>
<g>
</g>
<g>
</g>
<g>
</g>
<g>
</g>
<g>
</g>
</svg>
