<?xml version="1.0" encoding="iso-8859-1"?>
<!-- Generator: Adobe Illustrator 19.0.0, SVG Export Plug-In . SVG Version: 6.00 Build 0)  -->
<svg version="1.1" id="Capa_1" xmlns="http://www.w3.org/2000/svg" xmlns:xlink="http://www.w3.org/1999/xlink" x="0px" y="0px"
	 viewBox="0 0 512 512" style="enable-background:new 0 0 512 512;" xml:space="preserve">
<g>
	<g>
		<polygon points="378.14,409.41 311.354,361.705 299.728,326.827 224.723,305.397 194.771,225.526 168.028,185.41 93.826,185.41 
			61.826,132.076 0,132.076 0,243.614 76.847,262.826 88.251,319.849 132.333,352.91 132.333,439.41 512,439.41 512,409.41 		"/>
	</g>
</g>
<g>
	<g>
		<polygon points="61.082,336.971 51.153,287.326 0,274.538 0,439.41 102.333,439.41 102.333,367.91 		"/>
	</g>
</g>
<g>
	<g>
		<rect x="128.387" y="72.459" transform="matrix(0.7153 -0.6988 0.6988 0.7153 -35.865 131.4413)" width="30" height="74.559"/>
	</g>
</g>
<g>
	<g>
		<path d="M389.334,228.077c-13.032,0-25.611,2.924-37.061,8.547c-10.796-11.997-26.394-19.213-42.939-19.213
			c-11.076,0-21.807,3.193-30.975,9.029l-77.35-79.177l-21.459,20.964l98.341,100.663l10.688-12.109
			c5.256-5.955,12.821-9.371,20.754-9.371c10.633,0,20.451,6.215,25.014,15.834l7.85,16.547l14.676-10.955
			c9.429-7.039,20.654-10.759,32.461-10.759c29.959,0,54.333,24.374,54.333,54.333c0,29.959-24.374,54.333-54.333,54.333v30
			c46.501,0,84.333-37.832,84.333-84.333C473.667,265.909,435.835,228.077,389.334,228.077z"/>
	</g>
</g>
<g>
	<g>
		<rect x="235.686" y="89.485" transform="matrix(0.7243 -0.6895 0.6895 0.7243 -29.9196 212.4473)" width="30" height="108.301"/>
	</g>
</g>
<g>
</g>
<g>
</g>
<g>
</g>
<g>
</g>
<g>
</g>
<g>
</g>
<g>
</g>
<g>
</g>
<g>
</g>
<g>
</g>
<g>
</g>
<g>
</g>
<g>
</g>
<g>
</g>
<g>
</g>
</svg>
