<?xml version="1.0" ?><svg style="enable-background:new 0 0 512 512;" version="1.1" viewBox="0 0 512 512" xml:space="preserve" xmlns="http://www.w3.org/2000/svg" xmlns:xlink="http://www.w3.org/1999/xlink"><style type="text/css">
	.st0{fill:#DB1D46;}
	.st1{opacity:0.2;fill:#FFFFFF;}
	.st2{fill:#E6E7E8;}
</style><g id="outerdark"><path class="st0" d="M256.5,20C126.4,20,21,125.4,21,255.5S126.4,491,256.5,491S492,385.6,492,255.5S386.6,20,256.5,20z M256,460.5   c-112.9,0-204.5-91.6-204.5-204.5S143.1,51.5,256,51.5S460.5,143.1,460.5,256S368.9,460.5,256,460.5z"/></g><g id="outerlight"><path class="st1" d="M423.1,89l-22.4,22.4c37,37,59.8,88.1,59.8,144.6c0,112.9-91.6,204.5-204.5,204.5   c-56.4,0-107.6-22.9-144.6-59.8L90,422.1c92,92,241.1,92,333,0S515,181,423.1,89z"/></g><g id="innerdark"><circle class="st0" cx="256" cy="256" r="180"/></g><g id="Location"><path class="st2" d="M256,151.8c-43.1,0-78.1,35-78.1,78.1c0,50.2,56.3,112.8,65.1,122.4c3.7,4,6.7,7.8,13,7.8   c6.3,0,9.4-3.9,13-7.8c8.8-9.6,65.1-72.2,65.1-122.4C334.1,186.8,299.1,151.8,256,151.8z M256,282c-28.8,0-52.1-23.3-52.1-52.1   s23.3-52.1,52.1-52.1s52.1,23.3,52.1,52.1S284.8,282,256,282z M256,203.9c-14.4,0-26,11.7-26,26c0,14.4,11.7,26,26,26   s26-11.7,26-26C282,215.6,270.4,203.9,256,203.9z"/></g><g id="innerlight"><path class="st1" d="M128.1,382.6c-70.3-70.3-70.3-184.3,0-254.6s184.3-70.3,254.6,0"/></g></svg>