<?xml version="1.0" ?><!DOCTYPE svg  PUBLIC '-//W3C//DTD SVG 1.1//EN'  'http://www.w3.org/Graphics/SVG/1.1/DTD/svg11.dtd'><svg enable-background="new 0 0 65 65" height="65px" id="Layer_1" version="1.1" viewBox="0 0 65 65" width="65px" xml:space="preserve" xmlns="http://www.w3.org/2000/svg" xmlns:xlink="http://www.w3.org/1999/xlink"><path d="M64.426,32.645c0.004-0.034,0.007-0.068,0.008-0.102c0-0.015,0.004-0.028,0.004-0.042s-0.004-0.028-0.004-0.042  c-0.001-0.034-0.004-0.068-0.008-0.102c-0.003-0.037-0.008-0.074-0.014-0.11c-0.006-0.032-0.012-0.063-0.02-0.094  c-0.003-0.014-0.003-0.028-0.007-0.042c-0.004-0.016-0.012-0.029-0.017-0.044c-0.01-0.033-0.021-0.065-0.033-0.098  c-0.014-0.033-0.026-0.065-0.041-0.098c-0.014-0.027-0.026-0.054-0.04-0.081c-0.015-0.027-0.031-0.053-0.048-0.08  c-0.019-0.03-0.038-0.06-0.059-0.088c-0.019-0.025-0.036-0.05-0.056-0.073s-0.04-0.046-0.062-0.068  c-0.023-0.025-0.048-0.05-0.074-0.074c-0.021-0.021-0.044-0.042-0.067-0.061s-0.049-0.038-0.073-0.056  c-0.029-0.021-0.058-0.04-0.088-0.059c-0.026-0.017-0.054-0.033-0.081-0.048c-0.026-0.014-0.053-0.027-0.08-0.039  c-0.031-0.015-0.063-0.028-0.096-0.041c-0.033-0.013-0.067-0.024-0.102-0.035c-0.015-0.004-0.027-0.012-0.042-0.016L54.53,28.68  c-1.6-9.299-8.868-16.583-18.165-18.201L34.007,1.73c-0.004-0.015-0.012-0.028-0.017-0.043c-0.01-0.034-0.021-0.066-0.033-0.099  c-0.014-0.034-0.027-0.067-0.042-0.099c-0.013-0.026-0.025-0.052-0.038-0.077c-0.016-0.028-0.031-0.055-0.049-0.082  c-0.02-0.031-0.039-0.062-0.062-0.091c-0.017-0.023-0.033-0.046-0.051-0.068c-0.021-0.024-0.042-0.047-0.063-0.071  c-0.024-0.026-0.05-0.052-0.077-0.076c-0.021-0.019-0.041-0.039-0.063-0.057c-0.024-0.02-0.05-0.039-0.075-0.058  c-0.03-0.021-0.061-0.041-0.091-0.061c-0.025-0.016-0.05-0.031-0.076-0.045s-0.054-0.028-0.082-0.041  c-0.032-0.015-0.064-0.029-0.099-0.042C33.058,0.71,33.025,0.7,32.993,0.689c-0.016-0.004-0.028-0.013-0.044-0.017  c-0.014-0.004-0.028-0.003-0.042-0.007c-0.031-0.007-0.062-0.014-0.093-0.019c-0.036-0.006-0.072-0.011-0.109-0.015  c-0.036-0.003-0.071-0.006-0.106-0.007c-0.014,0-0.026-0.004-0.039-0.004c-0.014,0-0.027,0.004-0.042,0.004  c-0.033,0.001-0.066,0.003-0.1,0.007c-0.041,0.003-0.08,0.009-0.119,0.016c-0.03,0.005-0.059,0.011-0.088,0.019  c-0.014,0.003-0.028,0.003-0.042,0.007c-0.014,0.004-0.025,0.011-0.039,0.015c-0.037,0.011-0.073,0.023-0.109,0.038  c-0.031,0.012-0.062,0.025-0.092,0.039c-0.026,0.012-0.051,0.024-0.076,0.037c-0.03,0.016-0.06,0.034-0.089,0.052  c-0.029,0.018-0.056,0.037-0.084,0.057c-0.023,0.017-0.047,0.034-0.07,0.053c-0.026,0.021-0.05,0.043-0.074,0.066  c-0.025,0.023-0.048,0.047-0.072,0.072c-0.02,0.021-0.04,0.042-0.059,0.065c-0.021,0.025-0.04,0.051-0.059,0.078  c-0.021,0.028-0.04,0.057-0.059,0.087c-0.016,0.026-0.031,0.051-0.046,0.078s-0.028,0.055-0.041,0.083  c-0.015,0.032-0.028,0.064-0.041,0.097c-0.013,0.032-0.023,0.064-0.034,0.098c-0.004,0.015-0.013,0.028-0.017,0.044l-2.353,8.726  c-9.361,1.574-16.68,8.867-18.288,18.223l-8.798,2.372c-0.015,0.004-0.027,0.012-0.042,0.016c-0.035,0.01-0.069,0.022-0.103,0.035  c-0.032,0.012-0.063,0.025-0.095,0.04c-0.026,0.012-0.052,0.024-0.078,0.038c-0.03,0.016-0.058,0.033-0.086,0.051  c-0.029,0.018-0.058,0.037-0.085,0.058c-0.024,0.018-0.048,0.034-0.07,0.053c-0.025,0.021-0.049,0.043-0.073,0.065  c-0.025,0.023-0.048,0.047-0.072,0.072c-0.02,0.021-0.04,0.042-0.059,0.065c-0.021,0.025-0.04,0.051-0.059,0.078  c-0.021,0.028-0.04,0.057-0.058,0.087c-0.016,0.026-0.031,0.051-0.046,0.077c-0.015,0.027-0.028,0.055-0.041,0.083  c-0.015,0.032-0.028,0.064-0.041,0.097C0.652,32,0.641,32.032,0.631,32.065c-0.004,0.015-0.013,0.028-0.017,0.044  c-0.004,0.014-0.003,0.028-0.007,0.042c-0.007,0.031-0.014,0.062-0.019,0.094c-0.006,0.037-0.011,0.073-0.015,0.11  c-0.003,0.034-0.006,0.068-0.007,0.102c0,0.015-0.004,0.028-0.004,0.042s0.004,0.028,0.004,0.042  c0.001,0.034,0.003,0.068,0.007,0.102c0.004,0.037,0.008,0.074,0.015,0.11c0.005,0.032,0.012,0.063,0.019,0.094  c0.003,0.014,0.003,0.028,0.007,0.042c0.003,0.01,0.01,0.018,0.013,0.028c0.011,0.039,0.023,0.076,0.037,0.114  c0.018,0.046,0.039,0.09,0.061,0.134c0.021,0.042,0.042,0.084,0.067,0.124c0.011,0.017,0.018,0.035,0.029,0.051  c0.004,0.006,0.009,0.011,0.013,0.016c0.013,0.019,0.028,0.033,0.042,0.051c0.03,0.039,0.06,0.076,0.093,0.112  c0.032,0.034,0.066,0.065,0.102,0.097c0.028,0.024,0.053,0.051,0.083,0.074c0.007,0.006,0.016,0.01,0.024,0.015  c0.002,0.002,0.005,0.003,0.007,0.005c0.04,0.029,0.082,0.054,0.124,0.078c0.041,0.024,0.081,0.048,0.125,0.068  c0.039,0.018,0.079,0.032,0.119,0.047c0.021,0.008,0.041,0.015,0.062,0.021c0.02,0.007,0.038,0.017,0.059,0.022l8.798,2.372  c1.599,9.3,8.868,16.584,18.165,18.202l2.358,8.747c0.003,0.011,0.01,0.018,0.013,0.028c0.011,0.038,0.023,0.076,0.037,0.114  c0.018,0.046,0.039,0.09,0.061,0.134c0.021,0.042,0.042,0.084,0.067,0.124c0.011,0.017,0.018,0.035,0.029,0.051  c0.004,0.006,0.009,0.011,0.013,0.016c0.013,0.019,0.028,0.033,0.042,0.051c0.03,0.039,0.06,0.076,0.093,0.112  c0.032,0.034,0.066,0.065,0.102,0.097c0.028,0.024,0.053,0.051,0.083,0.074c0.007,0.006,0.016,0.01,0.024,0.015  c0.002,0.002,0.005,0.003,0.007,0.005c0.04,0.029,0.082,0.054,0.124,0.078c0.041,0.024,0.081,0.048,0.125,0.068  c0.039,0.018,0.079,0.032,0.119,0.047c0.021,0.008,0.041,0.015,0.062,0.021c0.02,0.007,0.038,0.017,0.059,0.022  c0.012,0.003,0.023,0.002,0.035,0.005c0.114,0.027,0.231,0.047,0.354,0.047c0,0,0.001,0,0.001,0h0h0h0h0c0,0,0.001,0,0.001,0  c0.123,0,0.24-0.02,0.354-0.047c0.012-0.003,0.023-0.002,0.035-0.005c0.021-0.006,0.039-0.016,0.059-0.022  c0.021-0.007,0.041-0.014,0.062-0.021c0.041-0.015,0.08-0.029,0.118-0.047c0.045-0.021,0.085-0.044,0.127-0.068  c0.041-0.024,0.083-0.049,0.122-0.078c0.003-0.002,0.006-0.003,0.009-0.005c0.007-0.006,0.016-0.009,0.022-0.015  c0.03-0.023,0.056-0.05,0.084-0.075c0.034-0.031,0.068-0.062,0.1-0.095c0.034-0.037,0.064-0.075,0.095-0.114  c0.013-0.018,0.028-0.032,0.041-0.05c0.004-0.006,0.009-0.01,0.012-0.016c0.012-0.016,0.019-0.034,0.029-0.051  c0.025-0.04,0.047-0.082,0.068-0.125c0.021-0.044,0.042-0.087,0.06-0.133c0.015-0.037,0.026-0.075,0.038-0.114  c0.003-0.011,0.01-0.018,0.013-0.028l2.353-8.727c9.361-1.573,16.681-8.865,18.288-18.223l8.798-2.372  c0.021-0.006,0.038-0.016,0.059-0.022c0.021-0.007,0.041-0.014,0.062-0.021c0.04-0.015,0.08-0.029,0.118-0.047  c0.045-0.021,0.085-0.044,0.127-0.068c0.041-0.024,0.083-0.049,0.122-0.078c0.003-0.002,0.006-0.003,0.009-0.005  c0.007-0.006,0.016-0.009,0.022-0.015c0.03-0.023,0.056-0.05,0.084-0.075c0.034-0.031,0.068-0.062,0.1-0.095  c0.034-0.037,0.064-0.075,0.095-0.114c0.013-0.018,0.028-0.032,0.041-0.05c0.004-0.006,0.009-0.01,0.012-0.016  c0.012-0.016,0.019-0.034,0.029-0.051c0.025-0.04,0.047-0.082,0.068-0.125c0.021-0.044,0.042-0.087,0.06-0.133  c0.015-0.038,0.026-0.076,0.038-0.114c0.003-0.01,0.01-0.018,0.013-0.028c0.004-0.014,0.004-0.028,0.007-0.042  c0.008-0.031,0.014-0.062,0.02-0.094C64.418,32.718,64.423,32.682,64.426,32.645z M51.287,27.806l-11.054-2.98L37.24,13.725  C44.162,15.46,49.569,20.879,51.287,27.806z M27.885,13.693l-2.992,11.098l-11.181,3.015C15.441,20.826,20.898,15.392,27.885,13.693  z M13.713,37.194l11.054,2.98l2.993,11.101C20.837,49.54,15.431,44.121,13.713,37.194z M37.115,51.307l2.992-11.098l11.181-3.015  C49.559,44.174,44.102,49.609,37.115,51.307z"/></svg>