<svg height="512" viewBox="0 0 60 60" width="512" xmlns="http://www.w3.org/2000/svg"><g id="Page-1" fill="none" fill-rule="evenodd"><g id="047---Mountain-Route" fill-rule="nonzero" transform="translate(-1)"><path id="Shape" d="m31 6h-5.5c-.2025089.00036232-.3852385-.12146287-.4627843-.30853671-.0775458-.18707385-.0345925-.4024491.1087843-.54546329l.793-.792c.0940417-.09380426.1468938-.22117274.1468938-.354s-.0528521-.26019574-.1468938-.354l-.793-.792c-.1433768-.14301419-.1863301-.35838944-.1087843-.54546329.0775458-.18707384.2602754-.30889903.4627843-.30853671h5.5c.5522847 0 1 .44771525 1 1v2c0 .55228475-.4477153 1-1 1z" fill="#f44335"/><path id="Shape" d="m31 2h-3c.5522847 0 1 .44771525 1 1v2c0 .55228475-.4477153 1-1 1h3c.5522847 0 1-.44771525 1-1v-2c0-.55228475-.4477153-1-1-1z" fill="#c81e1e"/><path id="Shape" d="m41.27 24.64-1.95 2.51c-.1583944.202478-.4005218.3216161-.6575866.3235636-.2570649.0019474-.5009695-.1135086-.6624134-.3135636l-2-2.5c-.1654564-.2066522-.4177492-.3244174-.6824119-.318536s-.5114751.1347378-.6675881.348536l-2.82 3.96c-.1639849.2276455-.4301601.3591866-.710605.3511739s-.5386753-.1545368-.689395-.3911739l-2.91-4.66c-.1450294-.2305386-.3925058-.3768036-.6644055-.3926809-.2718997-.0158774-.5347181.1005894-.7055945.3126809l-1.99 2.49c-.1560068.1947645-.3907802.3097622-.6402925.3136306s-.4877379-.1037959-.6497075-.2936306l-1.88-2.2 4.17-7.37c.9443352.4312252 2.0616108.0682337 2.572175-.8356735.5105643-.9039071.2446539-2.0481795-.612175-2.6343265l1.61-2.84c.1775523-.3075445.5048889-.4978565.86-.5h2.82c.3551111.0021435.6824477.1924555.86.5z" fill="#f5f5f5"/><path id="Shape" d="m33.27 10.5c-.1775523-.3075445-.5048889-.4978565-.86-.5h-2.82c-.0301856.0024574-.0602251.0064627-.09.012.3201965.0294118.6067172.210999.77.488l8 14.14-1.126 1.45.856 1.07c.1614439.200055.4053485.315511.6624134.3135636.2570648-.0019475.4991922-.1210856.6575866-.3235636l1.95-2.51z" fill="#cfd8dc"/><path id="Shape" d="m59.01 59h-56.02c-.35618862-.0021425-.68434971-.1935877-.86151547-.5025978s-.1765885-.6889319.00151547-.9974022l18.86-33.32 1.88 2.2c.1619696.1898347.4001952.297499.6497075.2936306s.4842857-.1188661.6402925-.3136306l1.99-2.49c.1708764-.2120915.4336948-.3285583.7055945-.3126809.2718997.0158773.5193761.1621423.6644055.3926809l2.91 4.66c.1507197.2366371.4089501.3831612.689395.3911739s.5466201-.1235284.710605-.3511739l2.82-3.96c.156113-.2137982.4029254-.3426546.6675881-.348536s.5169555.1118838.6824119.318536l2 2.5c.1614439.200055.4053485.315511.6624134.3135636.2570648-.0019475.4991922-.1210856.6575866-.3235636l1.95-2.51 18.6 32.86c.178104.3084703.1786812.6883921.0015155.9974022-.1771658.3090101-.5053269.5004553-.8615155.5025978z" fill="#7f8e94"/><path id="Shape" d="m59.87 57.5-18.6-32.86-1.736 2.234 17.336 30.626c.178104.3084703.1786812.6883921.0015155.9974022-.1771658.3090101-.5053269.5004553-.8615155.5025978h3c.3561886-.0021425.6843497-.1935877.8615155-.5025978.1771657-.3090101.1765885-.6889319-.0015155-.9974022z" fill="#545c60"/><g fill="#ffdc00"><path id="Shape" d="m28 15c0 1.1045695-.8954305 2-2 2s-2-.8954305-2-2 .8954305-2 2-2c.3991209-.0025009.7896247.1160449 1.12.34.5504811.3731483.8801199.9949669.88 1.66z"/><circle id="Oval" cx="37" cy="33" r="2"/><circle id="Oval" cx="23" cy="37" r="2"/><circle id="Oval" cx="38" cy="48" r="2"/><circle id="Oval" cx="23" cy="50" r="2"/></g><path id="Shape" d="m53.86 56c-.3551111-.0021435-.6824477-.1924555-.86-.5l-7.6-13.032c-.1952575-.3090712-.2062951-.7000601-.0287848-1.0196545s.5152733-.5168512.8808477-.5144232c.3655743.002428.7006875.2041537.8739371.5260777l7.6 13.032c.182759.3098744.1849848.6940351.0058288 1.0060065s-.5120786.5036661-.8718288.5019935z" fill="#f5f5f5"/><circle id="Oval" cx="44.257" cy="38.621" fill="#f5f5f5" r="1"/><path id="Shape" d="m34.135 10c-.3568991-.61573085-1.0133206-.99626506-1.725-1h-.41v-2.278c.6167513-.35441258.997855-1.01067322 1-1.722v-2c-.002145-.71132678-.3832487-1.36758742-1-1.722v-.278c0-.55228475-.4477153-1-1-1s-1 .44771525-1 1h-4.5c-.6067226.00012952-1.1536193.36574427-1.3856523.92634481s-.1035028 1.20577505.3256523 1.63465519l.44.439-.44.439c-.4291551.42888014-.5576853 1.07405465-.3256523 1.63465519s.7789297.92621529 1.3856523.92634481h4.5v2h-.41c-.7146858.00422577-1.3733745.38763592-1.73 1.007l-1.178 2.078c-1.2943393-.3041199-2.634096.2823898-3.2886648 1.4396896s-.4669003 2.6077212.4606648 3.5603104l-22.591 39.922c-.353515.6180468-.35179493 1.3774339.00451627 1.9938728.3563112.616439 1.01347951.9969669 1.72548373.9991272h56.014c.7116964-.0023624 1.3685215-.3827532 1.7247682-.9988747.3562467-.6161214.3582391-1.3751421.0052318-1.9931253zm-7.43-7h4.295v2h-4.3c.5107137-.56812727.5128666-1.42932628.005-2zm5.695 7.992 7.673 13.558-1.419 1.827-1.88-2.35c-.355334-.456421-.9101925-.7118498-1.488-.685-.5768786.0150108-1.1134645.2992163-1.45.768l-.456.64-4.788-8.267c.6185183-1.0438139.5273685-2.3613066-.229-3.31l1.227-2.173zm-1.248 16.887-2.787-4.463c-.3175999-.5053184-.8602392-.825553-1.4561219-.8593197s-1.1712253.2231156-1.5438781.6893197l-1.865 2.335-1.3-1.519 3.45-6.1c.1158319.0194372.2326956.0321253.35.038.3575279-.0032652.7115328-.0710173 1.045-.2l5.061 8.738zm-5.152-13.879c.5522847 0 1 .4477153 1 1s-.4477153 1-1 1-1-.4477153-1-1 .4477153-1 1-1zm-4.844 11.914.951 1.113c.350607.4205688.8735816.658686 1.421.647.5506773-.006315 1.069403-.2596206 1.413-.69l1.85-2.313 2.789 4.467c.3245727.5200441.8872812.8437891 1.5.863h.061c.5954622.0005421 1.1543731-.2871107 1.5-.772l.562-.789 1.519 2.624c-.4189651.490595-.6670997 1.1040876-.707 1.748l-8.583 2.45c-.9567296-1.3442778-2.8194466-1.6636377-4.1693231-.7148239s-1.6801766 2.8096221-.7393113 4.1650507c.9408652 1.3554286 2.7997005 1.6966575 4.1606344.7637732l10.451 7.667c-.023.079-.055.153-.072.235l-9.404 1.262c-.6263319-1.2360267-2.0196246-1.8800242-3.3669234-1.5562344-1.3472987.3237898-2.2958007 1.5305793-2.2920766 2.9162344.0017247.4454868.1042886.8848019.3 1.285l-6.709 6.709-10.591-.002zm15.844 6.086c.5522847 0 1 .4477153 1 1s-.4477153 1-1 1-1-.4477153-1-1 .4477153-1 1-1zm-13 5c0 .5522847-.4477153 1-1 1s-1-.4477153-1-1 .4477153-1 1-1 1 .4477153 1 1zm-2 13c0-.5522847.4477153-1 1-1s1 .4477153 1 1-.4477153 1-1 1-1-.4477153-1-1zm-5.58 7.994 5.3-5.3c.3981921.1970536.8357386.3016546 1.28.306 1.4167642-.0009554 2.6397301-.9929212 2.933-2.379l9.408-1.261c.5689376 1.1066892 1.7634587 1.7457074 2.9998201 1.6047765 1.2363614-.1409308 2.2564263-1.0323861 2.5617054-2.2387259.3052791-1.2063397-.167966-2.4756955-1.1884681-3.1877534-1.0205021-.7120578-2.3751932-.7181492-3.4020574-.0152972l-10.451-7.667c.0649975-.2174445.1052522-.4415286.12-.668l8.583-2.451c.8616137 1.2264524 2.4946832 1.631439 3.8295148.9496852 1.3348317-.6817537 1.9640749-2.2421969 1.4755626-3.6592076-.4885122-1.4170108-1.9457007-2.2581599-3.4170774-1.9724776l-1.971-3.4.863-1.212 1.87 2.338c.3446038.4423723.8742465.7007345 1.435.7.5695355.0010553 1.1076357-.2609825 1.458-.71l1.031-1.328 17.869 31.557zm20.58-9.994c0-.5522847.4477153-1 1-1s1 .4477153 1 1-.4477153 1-1 1-1-.4477153-1-1z" fill="#000"/></g></g></svg>