<?xml version="1.0" encoding="iso-8859-1"?>
<!-- Generator: Adobe Illustrator 19.0.0, SVG Export Plug-In . SVG Version: 6.00 Build 0)  -->
<svg version="1.1" id="Layer_1" xmlns="http://www.w3.org/2000/svg" xmlns:xlink="http://www.w3.org/1999/xlink" x="0px" y="0px"
	 viewBox="0 0 512 512" style="enable-background:new 0 0 512 512;" xml:space="preserve">
<path style="fill:#5C5F66;" d="M369,433H79c-27.019,0-49-21.981-49-49s21.981-49,49-49h96c43.561,0,79-35.439,79-79
	s-35.439-79-79-79H79c-8.284,0-15,6.716-15,15s6.716,15,15,15h96c27.019,0,49,21.981,49,49s-21.981,49-49,49H79
	c-43.561,0-79,35.439-79,79s35.439,79,79,79h290c8.284,0,15-6.716,15-15S377.284,433,369,433z"/>
<path style="fill:#53565C;" d="M369,433H256v30h113c8.284,0,15-6.716,15-15S377.284,433,369,433z"/>
<path style="fill:#D92C48;" d="M401,495c-25.916,0-47-21.084-47-47s21.084-47,47-47s47,21.084,47,47S426.916,495,401,495z"/>
<path style="fill:#4DB5FF;" d="M47,239c-25.916,0-47-21.084-47-47s21.084-47,47-47s47,21.084,47,47S72.916,239,47,239z"/>
<path style="fill:#5C5F66;" d="M47,175c-8.284,0-15-6.716-15-15V32c0-8.284,6.716-15,15-15s15,6.716,15,15v128
	C62,168.284,55.284,175,47,175z"/>
<path style="fill:#4DB5FF;" d="M143,111H47c-8.284,0-15-6.716-15-15V32c0-8.284,6.716-15,15-15h96c8.284,0,15,6.716,15,15v64
	C158,104.284,151.284,111,143,111z"/>
<path style="fill:#F23051;" d="M401,49c-61.21,0-111,49.79-111,111c0,33.05,14.4,63.84,39.63,85.01l58.01,113.8
	c2.56,5.03,7.72,8.19,13.36,8.19s10.8-3.16,13.36-8.19l58.01-113.8C497.6,223.84,512,193.05,512,160C512,98.79,462.21,49,401,49z
	 M401,207c-25.92,0-47-21.08-47-47s21.08-47,47-47s47,21.08,47,47S426.92,207,401,207z"/>
<path style="fill:#D92C48;" d="M512,160c0,33.05-14.4,63.84-39.63,85.01l-58.01,113.8c-2.56,5.03-7.72,8.19-13.36,8.19V207
	c25.92,0,47-21.08,47-47s-21.08-47-47-47V49C462.21,49,512,98.79,512,160z"/>
<g>
</g>
<g>
</g>
<g>
</g>
<g>
</g>
<g>
</g>
<g>
</g>
<g>
</g>
<g>
</g>
<g>
</g>
<g>
</g>
<g>
</g>
<g>
</g>
<g>
</g>
<g>
</g>
<g>
</g>
</svg>
