<?xml version="1.0" ?><!DOCTYPE svg  PUBLIC '-//W3C//DTD SVG 1.1//EN'  'http://www.w3.org/Graphics/SVG/1.1/DTD/svg11.dtd'><svg height="512px" style="enable-background:new 0 0 512 512;" version="1.1" viewBox="0 0 512 512" width="512px" xml:space="preserve" xmlns="http://www.w3.org/2000/svg" xmlns:xlink="http://www.w3.org/1999/xlink"><g id="B_-_176_x2C__Map_x2C__Direction_x2C__location_x2C__navigation_x2C__pointer"><g><path d="M416.964,265.252c0,1.851-1.513,3.323-3.368,3.323    c-1.848,0-3.322-1.473-3.322-3.323v-29.689c0-1.81,1.475-3.323,3.322-3.323c1.855,0,3.368,1.514,3.368,3.323V265.252z     M94.57,237.496c0,1.85-1.467,3.323-3.275,3.323c-1.855,0-3.368-1.473-3.368-3.323v-29.69c0-1.851,1.513-3.323,3.368-3.323    c1.808,0,3.275,1.472,3.275,3.323V237.496z M290.545,85.049c-6.473-6.478-15.477-10.514-25.402-10.514    c-9.879,0-18.837,3.953-25.316,10.346l-0.125,0.168c-6.519,6.518-10.557,15.518-10.557,25.442c0,9.925,4.039,18.925,10.557,25.401    c6.478,6.519,15.522,10.556,25.441,10.556c9.847,0,18.759-3.955,25.238-10.346l0.164-0.21    c6.518-6.477,10.557-15.476,10.557-25.401C301.102,100.566,297.063,91.567,290.545,85.049z M265.143,67.848    c11.78,0,22.377,4.794,30.112,12.491c7.741,7.737,12.49,18.378,12.49,30.153s-4.749,22.415-12.49,30.153l-0.211,0.167    c-7.695,7.613-18.292,12.322-29.901,12.322c-11.773,0-22.455-4.794-30.19-12.49c-7.656-7.738-12.451-18.378-12.451-30.153    s4.794-22.416,12.451-30.153l0.25-0.168C242.898,72.558,253.455,67.848,265.143,67.848z M316.117,61.582    C303.082,48.545,285.04,40.47,265.143,40.47c-19.929,0-37.971,8.075-51.054,21.112c-13.037,13.037-21.107,31.079-21.107,51.012    c0,21.7,12.951,42.097,29.27,60.895l0.21,0.21l1.052,1.22l0.08,0.126l0.552,0.588l0.672,0.757l0.584,0.674l0.632,0.672l0,0    l0.631,0.715l0.546,0.63l0.085,0.042l0.631,0.716l0.507,0.546l0.124,0.168l0.671,0.672l0.421,0.462l0.257,0.252l0.624,0.674    l0.382,0.42l0.25,0.294l0.678,0.673l0.29,0.337l0.381,0.378l0.631,0.673l0.21,0.209l0.421,0.463l0.671,0.715l0.171,0.126    l0.5,0.546l0.677,0.672l0.08,0.085l0.552,0.588l0.672,0.672l0.039,0.042l0.592,0.631l0.631,0.631l0.04,0.042l0.671,0.673    l0.545,0.588l0.132,0.085l0.671,0.672l0.46,0.505l0.21,0.168l0.631,0.673l0.421,0.42l0.25,0.252l0.631,0.674l0.342,0.335    l0.336,0.295l0.671,0.672l0.25,0.253l0.421,0.421l0.632,0.63l0.21,0.21l0.46,0.462l0.677,0.673l0.125,0.125l0.506,0.505    l0.67,0.673l0.086,0.042l0.585,0.589l0.591,0.631l0.04,0.041l0.21,0.21l0.046,0.042l0.25,0.21v0.042l0.211,0.21l0.039,0.042    l0.256,0.21l0,0l0.25,0.251v0.043l0.211,0.209l0.039,0.042l0.256,0.209l0,0l0.25,0.252v0.042l0.21,0.21h0.039l0.257,0.253v0.042    l0.21,0.21h0.039l0.256,0.252l0,0l0.21,0.252h0.04l0.21,0.252h0.04l0.21,0.251h0.046l0.21,0.253l0,0l0.25,0.252l0,0l0.25,0.252    l0,0l0.256,0.21v0.042l0.25,0.21l0,0l0.25,0.252v0.042l0.257,0.21l0,0l0.25,0.252l0,0l0.256,0.252l0,0l0.25,0.252l0,0l0.211,0.252    h0.039l0.21,0.21l0.047,0.042l0.21,0.252l0,0l0.25,0.21h0.039l0.21,0.252l0,0l0.211,0.253h0.046l0.21,0.251l0,0l0.25,0.251l0,0    l0.25,0.253l0,0l0.258,0.21l0,0l0.21,0.252h0.04l0.21,0.252h0.039l0.21,0.253l0,0l0.211,0.251l0,0l0.256,0.21l0,0l0.25,0.252l0,0    l0.251,0.252l0,0l0.21,0.252l0,0l0.257,0.252l0,0l0.25,0.21l0,0l0.21,0.253l0,0l0.25,0.251l0,0l0.256,0.252l0,0l0.211,0.21h0.041    l0.17,0.252h0.04l0.21,0.252l0,0l0.257,0.21l0,0l0.204,0.252l0,0l0.256,0.253l0.211,0.209l0.25,0.252l0,0l0.256,0.252l0,0    l0.204,0.252l0.21,0.21l0.258,0.252l0,0l0.25,0.253l0.21,0.209l0.21,0.252l0.25,0.252l0.211-0.252l0.211-0.252l0,0l0.256-0.209    l0.211-0.253l0.21-0.252l0.25-0.21l0.249-0.252l0.211-0.252l0.211-0.252l0.257-0.209l0,0l0.25-0.253l0.21-0.252l0.211-0.21l0,0    l0.25-0.252l0.256-0.252l0.25-0.21l0,0l0.211-0.252l0.21-0.251l0.25-0.253l0,0l0.257-0.252l0,0l0.25-0.21l0.256-0.252l0.205-0.252    l0,0l0.716-0.714l0,0l0.257-0.253l0.25-0.252l0.25-0.252l0.467-0.463l0.211-0.251l0.25-0.251l0,0l0.249-0.253l0.507-0.505l0,0    l0.25-0.252l0.506-0.462l0,0l0.251-0.252l0,0l0.211-0.252l0,0l0.256-0.252l0,0l0.21-0.252l0,0l0.297-0.252l0,0l0.21-0.252h0.039    l0.251-0.21l0,0l0.467-0.505l0,0l0.25-0.253l0.25-0.251l0,0l0.256-0.252l0,0l0.25-0.252l0,0l0.25-0.252l0,0l0.257-0.252l0,0    l0.249-0.253l0,0l0.25-0.252l0,0l0.258-0.252l0,0l0.25-0.252l0,0l0.256-0.252l0,0l0.25-0.251l0,0l0.25-0.253l0,0l0.257-0.252l0,0    l0.25-0.252l0,0l0.249-0.251l0,0l0.553-0.547l0,0l0.546-0.504l0,0l0.586-0.547l0.506-0.588l0,0l0.586-0.505l0.506-0.546l0,0    l1.139-1.093l0,0l0.546-0.589l0,0l0.546-0.547l0,0l0.546-0.545l0.546-0.547l0.546-0.546v-0.043l0.592-0.504v-0.042l0.507-0.546    l0,0l0.585-0.547l0,0l0.546-0.546l0,0l0.546-0.588l0,0l0.546-0.547h0.047l0.506-0.546l0.585-0.588l0,0l0.507-0.547l0,0    l0.585-0.589l0.546-0.546l0,0l0.553-0.589l0,0l0.546-0.546l0,0l0.546-0.589l0.586-0.546v-0.042l0.506-0.546l0.593-0.589    l0.499-0.546l0.593-0.588l0.499-0.589l0.593-0.546l0,0l0.506-0.588l0,0l0.546-0.589h0.039l0.507-0.588l0,0l0.546-0.546v-0.042    l0.546-0.547v-0.042l0.506-0.547l0,0l0.547-0.588l0,0l0.547-0.589l0,0l0.506-0.589l0,0l0.545-0.589l0,0l0.547-0.588l0,0    l0.506-0.588l0,0l1.053-1.178v-0.042l1.553-1.724v-0.042l1.513-1.766v-0.042l0.506-0.547v-0.042l0.507-0.547v-0.042l1.006-1.177    v-0.043l0.468-0.546l0.039-0.042l2.44-3.027l0,0v-0.043l0,0l0.039-0.042l0,0h0.047v-0.042l0,0v-0.042l0,0l0.039-0.042h0.039    v-0.042l0,0v-0.043l0,0h0.086l0,0c2.689-3.491,5.255-7.023,7.616-10.597l0.039-0.042c2.776-4.249,5.302-8.58,7.36-12.954    l0.039-0.042c0.679-1.472,1.35-2.943,1.934-4.374v-0.043c0.422-0.966,0.758-1.934,1.139-2.901l0.039-0.042l0.086-0.253    l0.086-0.336l0.171-0.294l0.079-0.336l0.084-0.295v-0.042l0.126-0.294l0.126-0.337l0.084-0.336l0.336-0.968l0.086-0.294    l0.085-0.337l0.086-0.336v-0.042l0.085-0.294l0.29-0.967l0.085-0.253v-0.084l0.086-0.294l0.25-0.967l0.046-0.168l0.04-0.168    l0.125-0.673l0.085-0.294l0.085-0.336v-0.042v-0.043l0.041-0.083c0.881-3.996,1.302-8.075,1.302-12.154    C337.226,92.661,329.154,74.619,316.117,61.582z M341.475,130.046c-3.657,13.416-11.229,26.116-20.562,38.186v259.057    l89.36,33.938V293.009c0-1.81,1.475-3.323,3.322-3.323c1.855,0,3.368,1.514,3.368,3.323v170.742l20.396,7.779V166.466    L341.475,130.046z M314.263,176.391c-1.427,1.682-2.899,3.322-4.373,4.963l0,0l-0.836,0.967l0,0l-3.157,3.406l0,0l-2.736,2.902    l0,0l-0.414,0.505l0,0l-0.928,0.924l0,0l-0.928,0.968l0,0l-0.421,0.462h-0.039l-0.882,0.967l0,0l-0.506,0.462l0,0l-0.421,0.463    l0,0l-0.46,0.505h-0.047l-0.421,0.462l0,0l-0.46,0.462h-0.039l-0.422,0.463l0,0l-0.467,0.462l0,0l-0.46,0.463l0,0l-0.46,0.463    v0.041l-0.468,0.463l0,0l-0.421,0.462h-0.039l-1.349,1.388h-0.039l-0.421,0.463h-0.041l-0.42,0.461h-0.047l-1.341,1.388l0,0    l-0.467,0.463h-0.04l-0.42,0.421l0,0l-0.462,0.462l0,0l-0.466,0.463l0,0l-0.461,0.462l0,0l-0.461,0.462l0,0l-0.42,0.463l0,0    l-0.928,0.883l0,0l-0.928,0.883v0.042l-0.421,0.421l0,0l-0.289,0.294l0,0l-0.297,0.294l0,0l-0.335,0.295l0,0l-0.257,0.293l0,0    l-0.335,0.295l0,0l-0.25,0.294l0,0l-0.297,0.294h-0.039l-0.256,0.294l0,0l-0.336,0.294l0,0l-0.25,0.294l0,0l-0.295,0.295l0,0    l-0.297,0.293l0,0l-0.289,0.295l0,0l-0.296,0.252l0,0l-0.296,0.294l0,0l-0.297,0.294l0,0l-0.249,0.295l0,0l-0.297,0.294h-0.039    l-0.25,0.295l0,0l-0.296,0.294h-0.047l-0.249,0.252l0,0l-0.296,0.294l0,0l-0.297,0.295l-0.25,0.293l0,0l-0.295,0.295l-0.29,0.294    l-0.257,0.252l-0.334,0.294l-0.251,0.295l0,0l-0.257,0.293l-0.334,0.253l0,0l-0.252,0.294l0,0l-0.249,0.294l-0.341,0.252l0,0    l-0.252,0.294l-0.249,0.294l0,0l-0.296,0.295l-0.297,0.252l-0.25,0.294l-0.256,0.294l0,0l-0.289,0.252l-0.297,0.295l0,0    l-0.25,0.293l0,0l-0.256,0.253l-0.297,0.294l-0.289,0.294l0,0l-0.256,0.252l-0.25,0.294l-0.25,0.253l0,0l-0.257,0.293    l-0.296,0.253l-0.289,0.294l-0.257,0.294l-0.25,0.252l-0.249,0.295l-0.257,0.252l-0.25,0.293l-0.249,0.253l-0.258,0.294    l-0.25,0.252l-0.295,0.294l-0.211,0.251l-0.25,0.296l-0.297,0.251c-1.217,1.345-3.32,1.431-4.67,0.168l-0.21-0.21l-0.25-0.252    l-0.249-0.295l-0.257-0.251l-0.251-0.295l-0.256-0.252l-0.25-0.251l-0.295-0.294l-0.252-0.252l-0.25-0.295l-0.256-0.294    l-0.25-0.252l0,0l-0.25-0.252l-0.256-0.294l-0.297-0.295l0,0l-0.289-0.251l0,0l-0.257-0.295l0,0l-0.249-0.252l0,0l-0.25-0.294l0,0    l-0.257-0.294l0,0l-0.296-0.252l0,0l-0.289-0.295l-0.257-0.294l-0.25-0.252l0,0l-0.296-0.294l0,0l-0.295-0.252l0,0l-0.25-0.294    l0,0l-0.25-0.295l0,0l-0.257-0.252h-0.04l-0.295-0.294l0,0l-0.25-0.294l0,0l-0.257-0.252v-0.042l-0.29-0.252h-0.045l-0.25-0.294    l0,0l-0.25-0.295l0,0l-0.296-0.294h-0.046l-0.25-0.252l0,0l-0.25-0.294l0,0l-0.336-0.294l0,0l-0.256-0.294l0,0l-0.25-0.253h-0.047    l-0.289-0.293l0,0l-0.256-0.295h-0.039l-0.251-0.294l0,0l-0.295-0.252v-0.043l-0.296-0.251l0,0l-0.296-0.295l0,0l-0.25-0.294    h-0.04l-0.296-0.295l0,0l-0.256-0.294l0,0l-0.289-0.294l0,0l-0.297-0.252v-0.042l-0.295-0.253l0,0l-0.295-0.293l0,0l-0.251-0.295    h-0.04l-0.295-0.294l0,0l-0.25-0.294h-0.047l-0.25-0.294h-0.046l-0.25-0.294l0,0l-0.336-0.252v-0.042l-0.25-0.295l0,0    l-0.342-0.252v-0.041l-0.25-0.253v-0.042l-0.295-0.294h-0.04l-0.256-0.252l-0.04-0.042l-0.632-0.589l-0.584-0.631l-0.047-0.042    l-0.631-0.589l-0.631-0.672h-0.04l-0.584-0.588l-0.631-0.631l-0.047-0.083l-0.585-0.589l-0.678-0.63l-0.079-0.084l-0.545-0.546    l-0.631-0.631l-0.086-0.084l-0.545-0.588l-0.631-0.631l-0.125-0.084l-0.546-0.547l-0.631-0.672l-0.131-0.083l-0.5-0.547    l-0.677-0.673l-0.079-0.125l-0.507-0.505l-0.67-0.673l-0.171-0.126l-0.506-0.547l-0.586-0.631l-0.171-0.168l-0.506-0.504    l-0.671-0.673l-0.125-0.126l-0.46-0.504l-0.677-0.672l-0.165-0.169l-0.467-0.504l-0.625-0.672l-0.171-0.168l-0.506-0.505    l-0.586-0.63l-0.21-0.21l-0.466-0.462l-0.586-0.715l-0.25-0.21l-0.381-0.42l-0.631-0.672l-0.25-0.252l-0.382-0.463l-0.631-0.672    l-0.25-0.253l-0.382-0.421l-0.631-0.672l-0.25-0.294l-0.375-0.38l-0.631-0.714l-0.256-0.252l-0.336-0.421l-0.584-0.715    l-0.297-0.252l-0.335-0.421l-0.631-0.673l-0.592-0.714l-0.585-0.673c-4.039-4.668-7.867-9.42-11.352-14.257l-7.992,3.028V471.53    l116.486-44.241V176.391z M191.127,471.53V166.466l-116.487-44.2v305.023l13.287,5.047V265.252c0-1.85,1.513-3.322,3.368-3.322    c1.808,0,3.275,1.473,3.275,3.322v169.607L191.127,471.53z" style="fill-rule:evenodd;clip-rule:evenodd;"/></g></g><g id="Layer_1"/></svg>