<?xml version="1.0" ?><svg id="Layer_1" style="enable-background:new 0 0 50 50;" version="1.1" viewBox="0 0 50 50" xml:space="preserve" xmlns="http://www.w3.org/2000/svg" xmlns:xlink="http://www.w3.org/1999/xlink"><style type="text/css">
	.st0{fill:#414042;}
</style><g><path class="st0" d="M34.6,20.9l-3.7,1.2l-2.9,5.6l-2.4-1.9c2.9-3.6,6.8-6.3,6.8-6.3c2.2-3.1-2.6-4-2.6-4c3-3.1,7.4-4.5,7.4-4.5   c3.1-1.9,0-3.5,0-3.5l-6.8-1.6c0,0-5.7-1.7-6.4,0.4c-0.5,1.5,0.9,2.7,1.6,3.2l-12.6,7c0,0.2,0,1.7,0,1.7l16.7-9.3l1.9,0.7   c-3.2,1.6-7,4.8-7.2,6.6s2.6,2.3,2.6,2.3c-1.5,1-3.2,3-4.5,4.8l-3-2.4l-0.9,1.2l2.9,2.3c-0.9,1.2-1.5,2.1-1.5,2.1L10.1,19l-0.8,1.2   c0,0,23,17.9,23.3,17.9c0.3-0.1,2-0.6,2-0.6L20.7,27l2.8,2.1c0.4-0.7,0.8-1.4,1.3-2.1l16.6,13.2l1.8-0.5L31,30   C32.2,27.6,34.6,20.9,34.6,20.9z"/><path class="st0" d="M38.9,11.5l-2.8,2.3c0,0,1,3.4,5.7,4.3l-5,14l1.1,1.4l6-17.1C43.9,16.5,38.7,15.6,38.9,11.5z"/><circle class="st0" cx="42.4" cy="7.5" r="2.9"/><path class="st0" d="M3.4,27.8l0.3,1.5c0.8-0.1,20.2-3.4,25.5,17.2l1.5-0.4C25,24.2,3.6,27.8,3.4,27.8z"/></g></svg>